<mxfile host="65bd71144e">
    <diagram id="7TjBbOFRXMNvMuSj8Wp4" name="Page-1">
        <mxGraphModel dx="1019" dy="549" grid="1" gridSize="10" guides="1" tooltips="1" connect="1" arrows="1" fold="1" page="1" pageScale="1" pageWidth="827" pageHeight="1169" math="0" shadow="0">
            <root>
                <mxCell id="0"/>
                <mxCell id="1" parent="0"/>
                <mxCell id="2" value="" style="ellipse;whiteSpace=wrap;html=1;strokeWidth=10;" parent="1" vertex="1">
                    <mxGeometry x="320" y="120" width="240" height="240" as="geometry"/>
                </mxCell>
                <mxCell id="3" value="" style="ellipse;whiteSpace=wrap;html=1;strokeWidth=10;" parent="1" vertex="1">
                    <mxGeometry x="370" y="120" width="140" height="240" as="geometry"/>
                </mxCell>
                <mxCell id="6" value="" style="edgeStyle=none;orthogonalLoop=1;jettySize=auto;html=1;exitX=0.5;exitY=0;exitDx=0;exitDy=0;rounded=1;strokeWidth=13;endArrow=classic;endFill=1;targetPerimeterSpacing=0;startSize=0;sourcePerimeterSpacing=0;strokeColor=none;" parent="1" source="3" edge="1">
                    <mxGeometry width="80" relative="1" as="geometry">
                        <mxPoint x="400" y="270" as="sourcePoint"/>
                        <mxPoint x="440" y="520" as="targetPoint"/>
                    </mxGeometry>
                </mxCell>
                <mxCell id="8" value="" style="edgeStyle=none;orthogonalLoop=1;jettySize=auto;html=1;rounded=1;strokeWidth=10;endArrow=none;endFill=0;startSize=0;sourcePerimeterSpacing=0;targetPerimeterSpacing=0;exitX=0;exitY=0.5;exitDx=0;exitDy=0;entryX=1;entryY=0.5;entryDx=0;entryDy=0;" parent="1" source="2" target="2" edge="1">
                    <mxGeometry width="80" relative="1" as="geometry">
                        <mxPoint x="450" y="130" as="sourcePoint"/>
                        <mxPoint x="450" y="490" as="targetPoint"/>
                        <Array as="points"/>
                    </mxGeometry>
                </mxCell>
                <mxCell id="10" value="" style="edgeStyle=none;orthogonalLoop=1;jettySize=auto;html=1;rounded=1;strokeWidth=10;endArrow=none;endFill=0;startSize=0;sourcePerimeterSpacing=0;targetPerimeterSpacing=0;" parent="1" edge="1">
                    <mxGeometry width="80" relative="1" as="geometry">
                        <mxPoint x="340" y="170" as="sourcePoint"/>
                        <mxPoint x="540" y="170" as="targetPoint"/>
                        <Array as="points"/>
                    </mxGeometry>
                </mxCell>
                <mxCell id="9" value="" style="edgeStyle=none;orthogonalLoop=1;jettySize=auto;html=1;rounded=1;strokeWidth=10;endArrow=none;endFill=0;startSize=0;sourcePerimeterSpacing=0;targetPerimeterSpacing=0;" parent="1" edge="1">
                    <mxGeometry width="80" relative="1" as="geometry">
                        <mxPoint x="340" y="300" as="sourcePoint"/>
                        <mxPoint x="540" y="300" as="targetPoint"/>
                        <Array as="points"/>
                    </mxGeometry>
                </mxCell>
            </root>
        </mxGraphModel>
    </diagram>
</mxfile>